HIERARCHY
ROOT Hips
{
	OFFSET 0.00000 0.00000 0.00000
	CHANNELS 6 Xposition Yposition Zposition Zrotation Yrotation Xrotation 
	JOINT LHipJoint
	{
		OFFSET 0 0 0
		CHANNELS 3 Zrotation Yrotation Xrotation
		JOINT LeftHip
		{
			OFFSET 1.58895 -1.83665 0.71753
			CHANNELS 3 Zrotation Yrotation Xrotation
			JOINT LeftKnee
			{
				OFFSET 2.50528 -6.88321 0.00000
				CHANNELS 3 Zrotation Yrotation Xrotation
				JOINT LeftAnkle
				{
					OFFSET 2.63244 -7.23257 0.00000
					CHANNELS 3 Zrotation Yrotation Xrotation
					JOINT LeftToe
					{
						OFFSET 0.23691 -0.65090 1.72750
						CHANNELS 3 Zrotation Yrotation Xrotation
						End Site
						{
							OFFSET 0.00000 -0.00000 0.92561
						}
					}
				}
			}
		}
	}
	JOINT RHipJoint
	{
		OFFSET 0 0 0
		CHANNELS 3 Zrotation Yrotation Xrotation
		JOINT RightHip
		{
			OFFSET -1.51435 -1.83665 0.71753
			CHANNELS 3 Zrotation Yrotation Xrotation
			JOINT RightKnee
			{
				OFFSET -2.54551 -6.99375 0.00000
				CHANNELS 3 Zrotation Yrotation Xrotation
				JOINT RightAnkle
				{
					OFFSET -2.66027 -7.30903 0.00000
					CHANNELS 3 Zrotation Yrotation Xrotation
					JOINT RightToe
					{
						OFFSET -0.22981 -0.63138 2.03959
						CHANNELS 3 Zrotation Yrotation Xrotation
						End Site
						{
							OFFSET -0.00000 -0.00000 1.07060
						}
					}
				}
			}
		}
	}
	JOINT lowerback
	{
		OFFSET 0 0 0
		CHANNELS 3 Zrotation Yrotation Xrotation
		JOINT Chest
		{
			OFFSET -0.02651 1.86275 -0.11152
			CHANNELS 3 Zrotation Yrotation Xrotation
			JOINT Chest2
			{
				OFFSET 0.01019 1.86224 0.04087
				CHANNELS 3 Zrotation Yrotation Xrotation
				JOINT lowerneck
				{
					OFFSET 0 0 0
					CHANNELS 3 Zrotation Yrotation Xrotation
					JOINT Neck
					{
						OFFSET -0.01926 1.80512 0.08867
						CHANNELS 3 Zrotation Yrotation Xrotation
						JOINT Head
						{
							OFFSET 0.05516 1.76451 -0.38475
							CHANNELS 3 Zrotation Yrotation Xrotation
							End Site
							{
								OFFSET 0.01592 1.82587 -0.14001
							}
						}
					}
				}
				JOINT LeftCollar
				{
					OFFSET 0 0 0
					CHANNELS 3 Zrotation Yrotation Xrotation
					JOINT LeftShoulder
					{
						OFFSET 3.47116 1.51376 0.14491
CHANNELS 3 Zrotation Xrotation Yrotation
						JOINT LeftElbow
						{
OFFSET 0 -4.780950 0.000000
CHANNELS 3 Zrotation Xrotation Yrotation
							JOINT LeftWrist
							{
OFFSET 0 -3.586150 -0.000000
CHANNELS 3 Zrotation Xrotation Yrotation
								JOINT lhand
								{
									OFFSET 0 0 0
CHANNELS 3 Zrotation Xrotation Yrotation
									JOINT LFingers
									{
OFFSET 0 -0.659810 0.000000
CHANNELS 3 Zrotation Xrotation Yrotation
										End Site
										{
OFFSET 0 -0.531960 0.000000
										}
									}
								}
								JOINT LThumb
								{
OFFSET 0 0.000000 0.000000
CHANNELS 3 Zrotation Xrotation Yrotation
									End Site
									{
OFFSET 0 -0.540080 0.540080
									}
								}
							}
						}
					}
				}
				JOINT RightCollar
				{
					OFFSET 0 0 0
					CHANNELS 3 Zrotation Yrotation Xrotation
					JOINT RightShoulder
					{
						OFFSET -3.31725 1.61216 0.35156
CHANNELS 3 Zrotation Xrotation Yrotation
						JOINT RightElbow
						{
OFFSET 0 -4.489130 0.000000
CHANNELS 3 Zrotation Xrotation Yrotation
							JOINT RightWrist
							{
OFFSET 0 -3.705100 0.000000
CHANNELS 3 Zrotation Xrotation Yrotation
								JOINT rhand
								{
									OFFSET 0 0 0
CHANNELS 3 Zrotation Xrotation Yrotation
									JOINT RFingers
									{
OFFSET 0 -0.449140 0.000000
CHANNELS 3 Zrotation Xrotation Yrotation
										End Site
										{
OFFSET 0 -0.362110 0.000000
										}
									}
								}
								JOINT RThumb
								{
OFFSET 0 0.000000 0.000000
CHANNELS 3 Zrotation Xrotation Yrotation
									End Site
									{
OFFSET 0 -0.367630 0.367630
									}
								}
							}
						}
					}
				}
			}
		}
	}
}
MOTION
Frames: 10
Frame Time: 0.008333333333333333
-1.045700 18.149200 5.752400 -3.939300 -2.680400 -0.541000 0.000000 0.000000 0.000000 -12.879200 -2.369800 19.970300 0.870300 -5.948200 -16.634300 -1.018000 18.227600 -12.282900 0.282300 -3.417400 -9.443000 0.000000 0.000000 0.000000 19.255600 -6.316300 7.890900 0.000000 -0.000000 0.000000 -0.755300 -1.184400 -16.888200 -0.164900 -2.616000 7.211400 2.314900 1.016400 2.061000 0.794900 1.449000 -1.396100 -0.541900 0.689200 -2.552100 -3.268900 -2.539000 -6.456900 2.804100 -3.543200 17.439100 1.170700 -1.708400 6.465300 -0.000000 -0.000000 0.000000 -2.849500 12.412300 -23.457800 19.970100 -30.606300 5.516100 8.734100 6.882400 29.425500 0.000000 0.000000 0.000000 -7.125000 0.000000 0.000000 -12.825200 0.909300 -12.950400 -0.000000 -0.000000 0.000000 1.829100 18.339500 17.716000 -22.573200 -33.618800 -6.900500 -9.042200 21.119000 26.305300 0.000000 0.000000 0.000000 7.125000 0.000000 -0.000000 22.246000 55.153200 -5.755200
-1.048778 18.150220 5.751508 -3.885432 -2.636499 -0.552209 0.000000 0.000000 0.000000 -12.925080 -2.321660 19.912604 0.865273 -5.931320 -16.585161 -1.010587 18.156635 -12.205899 0.293114 -3.481584 -9.622481 0.000000 0.000000 0.000000 19.203723 -6.360071 7.883245 0.000000 0.000000 0.000000 -0.753920 -1.195957 -16.877471 -0.150953 -2.503357 6.899040 2.249086 1.032030 2.039675 0.782155 1.467012 -1.406500 -0.518579 0.699186 -2.551491 -3.313732 -2.456534 -6.417044 2.461934 -3.363008 17.358790 1.083575 -1.651011 6.422459 0.000000 0.000000 0.000000 -2.762211 12.500163 -23.721511 19.998071 -30.640047 5.530415 8.712048 6.636665 29.466603 0.000000 0.000000 0.000000 -7.125000 0.000000 0.000000 -12.839851 0.871859 -12.974655 0.000000 0.000000 0.000000 1.806504 18.417736 17.777597 -22.581071 -33.627465 -6.904896 -9.233726 21.091149 26.277989 0.000000 0.000000 0.000000 7.125000 0.000000 0.000000 22.040723 55.164931 -5.704656
-1.052231 18.148304 5.749228 -3.924281 -2.558288 -0.596082 0.000000 0.000000 0.000000 -12.854295 -2.276706 19.930281 0.868156 -5.941038 -16.613550 -1.006819 18.089642 -12.032620 0.307785 -3.566675 -9.860614 0.000000 0.000000 0.000000 19.258013 -6.454038 7.902274 0.000000 0.000000 0.000000 -0.754056 -1.217770 -16.888144 -0.143354 -2.439985 6.723233 2.276786 1.037901 2.030464 0.805078 1.475470 -1.384777 -0.510468 0.703538 -2.523654 -3.331539 -2.588505 -6.524598 2.685909 -3.581551 17.513512 1.139434 -1.739250 6.501544 0.000000 0.000000 0.000000 -2.766461 12.518801 -23.766766 20.086244 -30.746104 5.575408 8.505902 6.746158 29.377483 0.000000 0.000000 0.000000 -7.125000 0.000000 0.000000 -12.954520 0.983324 -13.070669 0.000000 0.000000 0.000000 1.758153 18.420455 17.792435 -22.580134 -33.626457 -6.904352 -9.373471 21.149187 26.022869 0.000000 0.000000 0.000000 7.125000 0.000000 0.000000 21.745198 54.955796 -5.509680
-1.054715 18.146181 5.749119 -3.938612 -2.412707 -0.616726 0.000000 0.000000 0.000000 -12.809580 -2.233331 19.910739 0.871913 -5.953337 -16.649114 -0.999378 17.999452 -11.872949 0.323569 -3.655905 -10.110710 0.000000 0.000000 0.000000 19.273662 -6.605974 7.894931 0.000000 0.000000 0.000000 -0.756865 -1.139497 -16.885833 -0.150191 -2.497462 6.882604 2.321015 1.034954 1.991327 0.803605 1.470917 -1.350690 -0.535284 0.701337 -2.465631 -3.347559 -2.660323 -6.543384 2.718861 -3.681562 17.451660 1.144711 -1.785924 6.489268 0.000000 0.000000 0.000000 -2.775883 12.465280 -23.801732 20.092867 -30.754048 5.578783 8.541745 6.678736 29.327063 0.000000 0.000000 0.000000 -7.125000 0.000000 0.000000 -12.931587 1.028298 -13.035739 0.000000 0.000000 0.000000 1.776453 18.283750 17.648504 -22.543570 -33.585875 -6.884128 -9.256233 21.277771 26.096775 0.000000 0.000000 0.000000 7.125000 0.000000 0.000000 21.905992 55.001724 -5.578482
-1.057749 18.146712 5.749537 -3.954936 -2.278667 -0.622072 0.000000 0.000000 0.000000 -12.766723 -2.281100 19.920783 0.875024 -5.963720 -16.679123 -0.995449 17.949569 -11.778270 0.331113 -3.698220 -10.229209 0.000000 0.000000 0.000000 19.295917 -6.741729 7.873609 0.000000 0.000000 0.000000 -0.753952 -1.095001 -16.835097 -0.169048 -2.648688 7.302145 2.352210 1.031797 1.978506 0.801571 1.467605 -1.367907 -0.554594 0.698890 -2.475399 -3.354448 -2.660645 -6.543006 2.761971 -3.688972 17.476567 1.158944 -1.786405 6.498230 0.000000 0.000000 0.000000 -2.770615 12.469422 -23.791017 20.080696 -30.739453 5.572495 8.583557 6.675609 29.389810 0.000000 0.000000 0.000000 -7.125000 0.000000 0.000000 -12.910248 0.962056 -13.028610 0.000000 0.000000 0.000000 1.794661 18.251535 17.592730 -22.530078 -33.570909 -6.876654 -9.538845 21.497172 25.992627 0.000000 0.000000 0.000000 7.125000 0.000000 0.000000 21.564246 54.959301 -5.462459
-1.059393 18.145906 5.751527 -3.902005 -2.201629 -0.652324 0.000000 0.000000 0.000000 -12.822109 -2.317057 19.988714 0.880985 -5.983585 -16.736693 -0.994936 17.942530 -11.762760 0.335205 -3.720662 -10.292087 0.000000 0.000000 0.000000 19.229050 -6.830291 7.903298 0.000000 0.000000 0.000000 -0.763265 -1.000057 -16.896435 -0.191624 -2.819209 7.775856 2.292108 1.009050 1.997463 0.803351 1.436874 -1.407243 -0.518809 0.683821 -2.528809 -3.358213 -2.612373 -6.518084 2.723276 -3.618270 17.567925 1.152904 -1.755506 6.520113 0.000000 0.000000 0.000000 -2.785701 12.514502 -23.796321 20.083182 -30.742411 5.573791 8.565106 6.536899 29.348463 0.000000 0.000000 0.000000 -7.125000 0.000000 0.000000 -12.919097 1.004690 -13.027959 0.000000 0.000000 0.000000 1.727034 18.274720 17.702611 -22.536369 -33.577965 -6.880149 -9.426128 21.511583 26.406020 0.000000 0.000000 0.000000 7.125000 0.000000 0.000000 21.931510 55.320348 -5.758827
-1.061259 18.145159 5.753893 -3.996281 -2.155225 -0.645260 0.000000 0.000000 0.000000 -12.706137 -2.307414 19.999660 0.884274 -5.994441 -16.768204 -0.995967 17.937051 -11.704780 0.345781 -3.778189 -10.453526 0.000000 0.000000 0.000000 19.340437 -6.880886 7.893641 0.000000 0.000000 0.000000 -0.760600 -1.011243 -16.872055 -0.183029 -2.755357 7.598265 2.377927 1.000930 1.968308 0.837311 1.428974 -1.424371 -0.531209 0.678582 -2.529189 -3.357169 -2.442229 -6.470034 2.547985 -3.352836 17.488451 1.118188 -1.641244 6.474826 0.000000 0.000000 0.000000 -2.789376 12.508007 -23.714676 20.073459 -30.730770 5.568829 8.626512 6.508938 29.461128 0.000000 0.000000 0.000000 -7.125000 0.000000 0.000000 -12.888817 0.887346 -13.023191 0.000000 0.000000 0.000000 1.700511 18.287734 17.764874 -22.587205 -33.634287 -6.908264 -9.475347 21.513148 26.376122 0.000000 0.000000 0.000000 7.125000 0.000000 0.000000 21.864289 55.302257 -5.730098
-1.062186 18.146301 5.756344 -3.963454 -2.094187 -0.637192 0.000000 0.000000 0.000000 -12.733499 -2.316069 19.973702 0.882212 -5.987608 -16.748523 -0.987381 17.865970 -11.666145 0.334806 -3.718509 -10.285952 0.000000 0.000000 0.000000 19.306726 -6.937440 7.873591 0.000000 0.000000 0.000000 -0.755871 -1.045655 -16.835651 -0.186417 -2.780705 7.668724 2.366157 1.005361 1.948012 0.830843 1.434134 -1.444461 -0.531286 0.681074 -2.538361 -3.443997 -2.585849 -6.627686 2.960710 -3.610760 17.636805 1.242167 -1.737499 6.566583 0.000000 0.000000 0.000000 -2.773936 12.490420 -23.752083 20.079904 -30.738476 5.572188 8.482361 6.587651 29.336697 0.000000 0.000000 0.000000 -7.125000 0.000000 0.000000 -12.966206 1.026023 -13.073072 0.000000 0.000000 0.000000 1.691947 18.263882 17.742726 -22.575443 -33.621270 -6.901821 -9.386569 21.450499 26.042711 0.000000 0.000000 0.000000 7.125000 0.000000 0.000000 21.744554 54.976681 -5.520812
-1.065824 18.145575 5.759873 -3.944836 -2.058042 -0.643846 0.000000 0.000000 0.000000 -12.729625 -2.256731 19.952341 0.881348 -5.984694 -16.740108 -0.979401 17.796199 -11.619115 0.346985 -3.784750 -10.471953 0.000000 0.000000 0.000000 19.297556 -6.982340 7.886315 0.000000 0.000000 0.000000 -0.754088 -1.106680 -16.841083 -0.162047 -2.593352 7.148623 2.351901 1.037774 1.936435 0.820276 1.476570 -1.457679 -0.535725 0.702278 -2.544362 -3.427925 -2.608286 -6.677141 3.006036 -3.649948 17.632367 1.250265 -1.751151 6.575733 0.000000 0.000000 0.000000 -2.776608 12.502690 -23.671356 20.101728 -30.764701 5.583320 8.452189 6.706576 29.329493 0.000000 0.000000 0.000000 -7.125000 0.000000 0.000000 -12.983315 1.036617 -13.088758 0.000000 0.000000 0.000000 1.741644 18.230584 17.762905 -22.569977 -33.615199 -6.898787 -9.580667 21.308560 25.905650 0.000000 0.000000 0.000000 7.125000 0.000000 0.000000 21.470006 54.886527 -5.398020
-1.068067 18.145244 5.761894 -3.958599 -2.005902 -0.640299 0.000000 0.000000 0.000000 -12.699328 -2.284095 19.952931 0.882144 -5.987394 -16.747883 -0.977617 17.780426 -11.605652 0.344122 -3.769284 -10.428452 0.000000 0.000000 0.000000 19.325472 -7.038581 7.880215 0.000000 0.000000 0.000000 -0.756317 -1.068633 -16.849469 -0.175578 -2.699129 7.442165 2.370433 1.052484 1.925723 0.835594 1.496762 -1.455407 -0.530928 0.712223 -2.535451 -3.386250 -2.633318 -6.797044 2.937565 -3.673979 17.625113 1.218038 -1.764223 6.593338 0.000000 0.000000 0.000000 -2.780739 12.475092 -23.713972 20.090664 -30.751458 5.577616 8.469551 6.618022 29.401226 0.000000 0.000000 0.000000 -7.125000 0.000000 0.000000 -12.976444 0.964579 -13.098450 0.000000 0.000000 0.000000 1.784908 18.187927 17.726544 -22.580500 -33.626878 -6.904589 -9.715589 21.381550 25.997029 0.000000 0.000000 0.000000 7.125000 0.000000 0.000000 21.393067 54.997171 -5.436131
